<svg width="40" height="39" viewBox="0 0 40 39" fill="none" xmlns="http://www.w3.org/2000/svg">
<path fill-rule="evenodd" clip-rule="evenodd" d="M1.31198 1.3C0.587393 1.3 0 1.8775 0 2.58988C0 3.30226 0.587393 3.87975 1.31198 3.87975H4.77263L11.4965 30.0632H34.9312C35.6558 30.0632 36.2432 29.4857 36.2432 28.7733C36.2432 28.0609 35.6558 27.4834 34.9312 27.4834H13.5403L13.0821 25.6993H32.914C34.6863 25.6993 36.2824 24.5855 36.6581 22.8452L39.9066 10.3042L39.9116 10.2813C40.411 8.01249 38.7447 5.66391 36.1639 5.66391H7.93709L6.81645 1.3H1.31198ZM8.59957 8.24366L12.4197 23.1195H32.914C33.5953 23.1195 34.0069 22.7209 34.0934 22.2994L34.0999 22.2677L37.3511 9.71658C37.5107 8.9384 36.9387 8.24366 36.1639 8.24366H8.59957Z" fill="black"/>
<path fill-rule="evenodd" clip-rule="evenodd" d="M10.0858 34.2282C10.0858 32.2988 11.6888 30.7563 13.639 30.7563C15.5892 30.7563 17.1923 32.2988 17.1923 34.2282C17.1923 36.1575 15.5892 37.7 13.639 37.7C11.6888 37.7 10.0858 36.1575 10.0858 34.2282ZM13.639 33.3361C13.1136 33.3361 12.7097 33.7474 12.7097 34.2282C12.7097 34.7089 13.1136 35.1202 13.639 35.1202C14.1645 35.1202 14.5683 34.7089 14.5683 34.2282C14.5683 33.7474 14.1645 33.3361 13.639 33.3361Z" fill="black"/>
<path fill-rule="evenodd" clip-rule="evenodd" d="M32.6899 30.7563C30.7397 30.7563 29.1367 32.2988 29.1367 34.2282C29.1367 36.1575 30.7397 37.7 32.6899 37.7C34.6401 37.7 36.2432 36.1575 36.2432 34.2282C36.2432 32.2988 34.6401 30.7563 32.6899 30.7563ZM31.7606 34.2282C31.7606 33.7474 32.1645 33.3361 32.6899 33.3361C33.2154 33.3361 33.6192 33.7474 33.6192 34.2282C33.6192 34.7089 33.2154 35.1202 32.6899 35.1202C32.1645 35.1202 31.7606 34.7089 31.7606 34.2282Z" fill="black"/>
</svg>
