<svg width="40" height="40" viewBox="0 0 40 40" fill="none" xmlns="http://www.w3.org/2000/svg">
<path d="M20 37.8958L16.75 35.3958C14.8125 33.7083 13 32.2083 11.25 30.8333C5 25.7708 0 21.7708 0 13.8333C0 5.70833 6.1875 1.33333 10.625 1.33333C15.875 1.33333 18.3125 4.08333 20 6.20833C21.75 4.08333 24.125 1.33333 29.375 1.33333C33.8125 1.33333 40 5.70833 40 13.8333C40 21.7708 35 25.7708 28.6875 30.8333C26.9375 32.2708 25.125 33.7083 23.1875 35.3958L23.125 35.4583L20 37.8958ZM18.4375 33.5208L20 34.7708L21.5625 33.5208C23.5 31.8333 25.3125 30.3333 27.125 28.8958C33.375 23.8958 37.5 20.5833 37.5 13.8333C37.5 6.77083 32.1875 3.83333 29.375 3.83333C25.0625 3.83333 23.375 5.95833 21.75 8.08333C21.5 8.39583 21.25 8.70833 21 9.02083L20 10.1458L19.0625 9.02083C18.8125 8.70833 18.5625 8.39583 18.3125 8.08333C16.6875 6.02083 14.9375 3.83333 10.625 3.83333C7.8125 3.83333 2.5 6.77083 2.5 13.8333C2.5 20.5833 6.625 23.8333 12.875 28.8333C14.625 30.2708 16.5 31.7708 18.4375 33.5208Z" fill="black"/>
</svg>
