<svg width="40" height="40" viewBox="0 0 40 40" fill="none" xmlns="http://www.w3.org/2000/svg">
<path d="M39.1478 18.0421L21.8375 3.29854C20.8788 2.45605 19.1744 2.45605 18.2157 3.29854L0.852197 18.0421C0.319574 18.4634 0 19.1479 0 19.7798C0 20.4643 0.266312 21.0962 0.798935 21.5701L2.55659 23.2024C3.03595 23.6763 3.72836 23.8869 4.42077 23.8869C4.84687 23.8869 5.32623 23.7816 5.69907 23.571V35.4712C5.69907 36.8402 6.81758 37.9986 8.25566 37.9986H15.8722H24.1278H31.7443C33.1292 37.9986 34.3009 36.8929 34.3009 35.4712V23.4657C35.2597 23.8343 36.4314 23.6763 37.1771 23.0971L39.0945 21.5701C39.6272 21.1488 40 20.5169 40 19.8324C40 19.1479 39.6804 18.516 39.1478 18.0421ZM14.7537 35.8397H8.25566C8.09587 35.8397 7.93609 35.6818 7.93609 35.5238V21.886L19.6005 12.4606C19.8136 12.3027 20.2397 12.3027 20.3995 12.4606L32.0107 21.8333V35.5238C32.0107 35.6818 31.8509 35.8397 31.6911 35.8397H25.2463H14.7537ZM37.7097 19.8324L35.7923 21.3594C35.5792 21.5174 35.1531 21.5174 34.9401 21.3594L21.8375 10.7756C20.8256 9.98581 19.1744 9.98581 18.2157 10.7756L4.79361 21.6227C4.68708 21.6754 4.58056 21.728 4.47403 21.728C4.31425 21.728 4.20772 21.6754 4.1012 21.6227L2.29028 19.9904C2.23702 19.9377 2.23702 19.9377 2.23702 19.8851C2.23702 19.8324 2.29028 19.7798 2.29028 19.7798L19.6538 5.03617C19.7603 4.98352 19.8668 4.93086 20.0266 4.93086C20.1864 4.93086 20.2929 4.98352 20.3995 5.03617L37.763 19.7798C37.8162 19.8324 37.8162 19.8324 37.8162 19.8324C37.763 19.7798 37.7097 19.7798 37.7097 19.8324Z" fill="black"/>
</svg>
