<svg width="40" height="40" viewBox="0 0 40 40" fill="none" xmlns="http://www.w3.org/2000/svg">
<path d="M0 8.00001C0 6.89544 0.895431 6.00001 2 6.00001H38C39.1046 6.00001 40 6.89544 40 8.00001C40 9.10458 39.1046 10 38 10H2C0.895431 10 0 9.10458 0 8.00001Z" fill="black"/>
<path d="M0 20C0 18.8954 0.895431 18 2 18H38C39.1046 18 40 18.8954 40 20C40 21.1046 39.1046 22 38 22H2C0.895431 22 0 21.1046 0 20Z" fill="black"/>
<path d="M2 30C0.895431 30 0 30.8954 0 32C0 33.1046 0.895431 34 2 34H38C39.1046 34 40 33.1046 40 32C40 30.8954 39.1046 30 38 30H2Z" fill="black"/>
</svg>
