<svg width="40" height="40" viewBox="0 0 40 40" fill="none" xmlns="http://www.w3.org/2000/svg">
<path d="M26.8736 21.5862C30.115 19.4483 32.3219 15.7931 32.3219 11.7241C32.3219 5.37931 26.9425 0 20.5977 0C14.2529 0 8.87358 5.37931 8.87358 11.7241C8.87358 15.7931 11.0805 19.4483 14.3219 21.5862C7.08048 23.7931 2.66669 30 2.66669 38.6207C2.66669 39.3793 3.28738 40 4.046 40H37.1494C37.9081 40 38.5288 39.3793 38.5288 38.6207C38.5288 30 34.115 23.7931 26.8736 21.5862ZM11.6322 11.7241C11.6322 6.89655 15.7701 2.75862 20.5977 2.75862C25.4253 2.75862 29.5632 6.89655 29.5632 11.7241C29.5632 16.5517 25.4253 20.6897 20.5977 20.6897C15.7701 20.6897 11.6322 16.5517 11.6322 11.7241ZM5.49427 37.2414C6.046 28.9655 11.7012 23.4483 20.5977 23.4483C29.4943 23.4483 35.1494 28.9655 35.7012 37.2414H5.49427Z" fill="black"/>
</svg>
